<?xml version="1.0" encoding="utf-8"?>
<!-- Generator: Adobe Illustrator 26.1.0, SVG Export Plug-In . SVG Version: 6.00 Build 0)  -->
<svg version="1.1" xmlns="http://www.w3.org/2000/svg" xmlns:xlink="http://www.w3.org/1999/xlink" x="0px" y="0px"
	 viewBox="0 0 1200 1200" style="enable-background:new 0 0 1200 1200;" xml:space="preserve">
<style type="text/css">
	.st0{fill:#FDFFFE;}
	.st1{fill:#89C24F;}
</style>
<g id="BG">
</g>
<g id="Layer_1">
	<g>
		<g>
			<path class="st0" d="M694.07,482.37v53.14c0,4.63-3.65,8.38-8.16,8.38h-42.33c-6.6,0-12.69-3.64-15.94-9.55
				c-12.37-22.48-30.35-41.24-51.98-54.28c-6.57-3.96-10.68-11.13-10.68-18.97v-41.65c0-4.62,3.67-8.4,8.16-8.4h51.62
				c4.51,0,8.16,3.77,8.16,8.4v54.53h52.99C690.42,473.97,694.07,477.73,694.07,482.37z"/>
			<path class="st1" d="M564.97,551.52v43.9c0,6.13,4.97,11.09,11.09,11.09h47.39c6.13,0,11.09-4.97,11.09-11.09v-26.91
				c0-18.19-19.14-43.35-28.44-53.89c-22.91-25.97-45.84-40.3-90.9-40.3h-17.29c15.1,28.53,53.52,44.23,78.39,45.17
				c-28.01,0.35-65.46-14.18-81.1-42.97c0.98,40.43,28.9,64.48,69.77,67.39c24.44,1.73,48.23,1.03,56.55,13.36
				c4.21,6.23,3.8,11.83,3.8,19.46l-0.01,18.7c0,1.02-0.83,1.85-1.85,1.85h-47.39c-1.02,0-1.85-0.83-1.85-1.85c0,0,0-22.92,0-31.02
				C574.22,552.55,564.97,551.52,564.97,551.52z"/>
		</g>
	</g>
</g>
</svg>
